<mxfile host="app.diagrams.net" agent="Mozilla/5.0 (Macintosh; Intel Mac OS X 10_15_7) AppleWebKit/537.36 (KHTML, like Gecko) Chrome/128.0.0.0 Safari/537.36" version="24.7.10">
  <diagram name="Page-1" id="rSAMqZ4DrXT9g6BvH1cz">
    <mxGraphModel dx="1094" dy="744" grid="1" gridSize="10" guides="1" tooltips="1" connect="1" arrows="1" fold="1" page="1" pageScale="1" pageWidth="850" pageHeight="1100" math="0" shadow="0">
      <root>
        <mxCell id="0" />
        <mxCell id="1" parent="0" />
        <mxCell id="oXpmxhtpxY_ralDpMQTe-60" value="" style="rounded=0;whiteSpace=wrap;html=1;" vertex="1" parent="1">
          <mxGeometry x="55" y="500" width="680" height="170" as="geometry" />
        </mxCell>
        <mxCell id="oXpmxhtpxY_ralDpMQTe-59" value="" style="rounded=0;whiteSpace=wrap;html=1;" vertex="1" parent="1">
          <mxGeometry x="30" y="120" width="760" height="310" as="geometry" />
        </mxCell>
        <mxCell id="oXpmxhtpxY_ralDpMQTe-8" value="" style="verticalLabelPosition=bottom;shadow=0;dashed=0;align=center;html=1;verticalAlign=top;shape=mxgraph.electrical.logic_gates.logic_gate;operation=or;strokeWidth=3;" vertex="1" parent="1">
          <mxGeometry x="320" y="160" width="120" height="80" as="geometry" />
        </mxCell>
        <mxCell id="oXpmxhtpxY_ralDpMQTe-9" value="" style="verticalLabelPosition=bottom;shadow=0;dashed=0;align=center;html=1;verticalAlign=top;shape=mxgraph.electrical.logic_gates.logic_gate;operation=or;strokeWidth=3;" vertex="1" parent="1">
          <mxGeometry x="320" y="320" width="120" height="80" as="geometry" />
        </mxCell>
        <mxCell id="oXpmxhtpxY_ralDpMQTe-13" style="edgeStyle=orthogonalEdgeStyle;rounded=0;orthogonalLoop=1;jettySize=auto;html=1;endArrow=none;endFill=0;strokeWidth=3;" edge="1" parent="1" source="oXpmxhtpxY_ralDpMQTe-10">
          <mxGeometry relative="1" as="geometry">
            <mxPoint x="160" y="221" as="targetPoint" />
          </mxGeometry>
        </mxCell>
        <mxCell id="oXpmxhtpxY_ralDpMQTe-10" value="" style="triangle;whiteSpace=wrap;html=1;strokeWidth=3;" vertex="1" parent="1">
          <mxGeometry x="230" y="206" width="20" height="30" as="geometry" />
        </mxCell>
        <mxCell id="oXpmxhtpxY_ralDpMQTe-11" value="" style="ellipse;whiteSpace=wrap;html=1;aspect=fixed;strokeWidth=3;" vertex="1" parent="1">
          <mxGeometry x="250" y="216" width="9" height="9" as="geometry" />
        </mxCell>
        <mxCell id="oXpmxhtpxY_ralDpMQTe-12" style="edgeStyle=orthogonalEdgeStyle;rounded=0;orthogonalLoop=1;jettySize=auto;html=1;entryX=0;entryY=0.75;entryDx=0;entryDy=0;entryPerimeter=0;strokeWidth=3;endArrow=none;endFill=0;" edge="1" parent="1" source="oXpmxhtpxY_ralDpMQTe-11" target="oXpmxhtpxY_ralDpMQTe-8">
          <mxGeometry relative="1" as="geometry" />
        </mxCell>
        <mxCell id="oXpmxhtpxY_ralDpMQTe-14" style="edgeStyle=orthogonalEdgeStyle;rounded=0;orthogonalLoop=1;jettySize=auto;html=1;endArrow=none;endFill=0;strokeWidth=3;" edge="1" parent="1">
          <mxGeometry relative="1" as="geometry">
            <mxPoint x="161" y="180" as="targetPoint" />
            <mxPoint x="320" y="180" as="sourcePoint" />
          </mxGeometry>
        </mxCell>
        <mxCell id="oXpmxhtpxY_ralDpMQTe-15" style="edgeStyle=orthogonalEdgeStyle;rounded=0;orthogonalLoop=1;jettySize=auto;html=1;endArrow=none;endFill=0;strokeWidth=3;" edge="1" parent="1" source="oXpmxhtpxY_ralDpMQTe-16">
          <mxGeometry relative="1" as="geometry">
            <mxPoint x="161" y="381" as="targetPoint" />
          </mxGeometry>
        </mxCell>
        <mxCell id="oXpmxhtpxY_ralDpMQTe-16" value="" style="triangle;whiteSpace=wrap;html=1;strokeWidth=3;" vertex="1" parent="1">
          <mxGeometry x="231" y="366" width="20" height="30" as="geometry" />
        </mxCell>
        <mxCell id="oXpmxhtpxY_ralDpMQTe-17" value="" style="ellipse;whiteSpace=wrap;html=1;aspect=fixed;strokeWidth=3;" vertex="1" parent="1">
          <mxGeometry x="251" y="376" width="9" height="9" as="geometry" />
        </mxCell>
        <mxCell id="oXpmxhtpxY_ralDpMQTe-18" style="edgeStyle=orthogonalEdgeStyle;rounded=0;orthogonalLoop=1;jettySize=auto;html=1;endArrow=none;endFill=0;strokeWidth=3;" edge="1" parent="1">
          <mxGeometry relative="1" as="geometry">
            <mxPoint x="161" y="340" as="targetPoint" />
            <mxPoint x="320" y="340" as="sourcePoint" />
          </mxGeometry>
        </mxCell>
        <mxCell id="oXpmxhtpxY_ralDpMQTe-20" value="" style="endArrow=none;html=1;rounded=0;entryX=0;entryY=0.75;entryDx=0;entryDy=0;entryPerimeter=0;exitX=1;exitY=0.5;exitDx=0;exitDy=0;strokeWidth=3;" edge="1" parent="1" source="oXpmxhtpxY_ralDpMQTe-17" target="oXpmxhtpxY_ralDpMQTe-9">
          <mxGeometry width="50" height="50" relative="1" as="geometry">
            <mxPoint x="240" y="440" as="sourcePoint" />
            <mxPoint x="290" y="390" as="targetPoint" />
          </mxGeometry>
        </mxCell>
        <mxCell id="oXpmxhtpxY_ralDpMQTe-21" value="CS_n Sample [0]" style="text;html=1;align=center;verticalAlign=middle;whiteSpace=wrap;rounded=0;fontSize=14;fontStyle=1" vertex="1" parent="1">
          <mxGeometry x="40" y="170" width="120" height="20" as="geometry" />
        </mxCell>
        <mxCell id="oXpmxhtpxY_ralDpMQTe-22" value="CS_n Sample [1]" style="text;html=1;align=center;verticalAlign=middle;whiteSpace=wrap;rounded=0;fontSize=14;fontStyle=1" vertex="1" parent="1">
          <mxGeometry x="40" y="210.5" width="120" height="20" as="geometry" />
        </mxCell>
        <mxCell id="oXpmxhtpxY_ralDpMQTe-23" value="CS_n Sample [2]" style="text;html=1;align=center;verticalAlign=middle;whiteSpace=wrap;rounded=0;fontSize=14;fontStyle=1" vertex="1" parent="1">
          <mxGeometry x="40" y="329.75" width="120" height="20" as="geometry" />
        </mxCell>
        <mxCell id="oXpmxhtpxY_ralDpMQTe-24" value="CS_n Sample [3]" style="text;html=1;align=center;verticalAlign=middle;whiteSpace=wrap;rounded=0;fontSize=14;fontStyle=1" vertex="1" parent="1">
          <mxGeometry x="40" y="370.25" width="120" height="20" as="geometry" />
        </mxCell>
        <mxCell id="oXpmxhtpxY_ralDpMQTe-28" style="edgeStyle=orthogonalEdgeStyle;rounded=0;orthogonalLoop=1;jettySize=auto;html=1;strokeWidth=3;endArrow=none;endFill=0;" edge="1" parent="1" source="oXpmxhtpxY_ralDpMQTe-25">
          <mxGeometry relative="1" as="geometry">
            <mxPoint x="660" y="280" as="targetPoint" />
          </mxGeometry>
        </mxCell>
        <mxCell id="oXpmxhtpxY_ralDpMQTe-25" value="" style="verticalLabelPosition=bottom;shadow=0;dashed=0;align=center;html=1;verticalAlign=top;shape=mxgraph.electrical.logic_gates.logic_gate;operation=or;strokeWidth=3;" vertex="1" parent="1">
          <mxGeometry x="500" y="240" width="120" height="80" as="geometry" />
        </mxCell>
        <mxCell id="oXpmxhtpxY_ralDpMQTe-26" style="edgeStyle=orthogonalEdgeStyle;rounded=0;orthogonalLoop=1;jettySize=auto;html=1;entryX=0;entryY=0.75;entryDx=0;entryDy=0;entryPerimeter=0;strokeWidth=3;endArrow=none;endFill=0;" edge="1" parent="1" source="oXpmxhtpxY_ralDpMQTe-9" target="oXpmxhtpxY_ralDpMQTe-25">
          <mxGeometry relative="1" as="geometry" />
        </mxCell>
        <mxCell id="oXpmxhtpxY_ralDpMQTe-27" style="edgeStyle=orthogonalEdgeStyle;rounded=0;orthogonalLoop=1;jettySize=auto;html=1;entryX=0;entryY=0.25;entryDx=0;entryDy=0;entryPerimeter=0;endArrow=none;endFill=0;strokeWidth=3;" edge="1" parent="1" source="oXpmxhtpxY_ralDpMQTe-8" target="oXpmxhtpxY_ralDpMQTe-25">
          <mxGeometry relative="1" as="geometry" />
        </mxCell>
        <mxCell id="oXpmxhtpxY_ralDpMQTe-29" value="Intermediate Output [0]" style="text;html=1;align=center;verticalAlign=middle;whiteSpace=wrap;rounded=0;fontSize=14;fontStyle=1" vertex="1" parent="1">
          <mxGeometry x="410" y="160" width="100" height="40" as="geometry" />
        </mxCell>
        <mxCell id="oXpmxhtpxY_ralDpMQTe-30" value="Intermediate Output [1]" style="text;html=1;align=center;verticalAlign=middle;whiteSpace=wrap;rounded=0;fontSize=14;fontStyle=1" vertex="1" parent="1">
          <mxGeometry x="410" y="360" width="100" height="40" as="geometry" />
        </mxCell>
        <mxCell id="oXpmxhtpxY_ralDpMQTe-31" value="CSTM Output" style="text;html=1;align=center;verticalAlign=middle;whiteSpace=wrap;rounded=0;fontSize=14;fontStyle=1" vertex="1" parent="1">
          <mxGeometry x="660" y="270" width="100" height="20" as="geometry" />
        </mxCell>
        <mxCell id="oXpmxhtpxY_ralDpMQTe-33" style="edgeStyle=orthogonalEdgeStyle;rounded=0;orthogonalLoop=1;jettySize=auto;html=1;endArrow=none;endFill=0;strokeWidth=3;" edge="1" parent="1">
          <mxGeometry relative="1" as="geometry">
            <mxPoint x="205" y="540" as="targetPoint" />
            <mxPoint x="484.5" y="540" as="sourcePoint" />
          </mxGeometry>
        </mxCell>
        <mxCell id="oXpmxhtpxY_ralDpMQTe-34" style="edgeStyle=orthogonalEdgeStyle;rounded=0;orthogonalLoop=1;jettySize=auto;html=1;endArrow=none;endFill=0;strokeWidth=3;entryX=1;entryY=0.5;entryDx=0;entryDy=0;" edge="1" parent="1" target="oXpmxhtpxY_ralDpMQTe-39">
          <mxGeometry relative="1" as="geometry">
            <mxPoint x="335.5" y="570" as="targetPoint" />
            <mxPoint x="494.5" y="570" as="sourcePoint" />
          </mxGeometry>
        </mxCell>
        <mxCell id="oXpmxhtpxY_ralDpMQTe-35" style="edgeStyle=orthogonalEdgeStyle;rounded=0;orthogonalLoop=1;jettySize=auto;html=1;endArrow=none;endFill=0;strokeWidth=3;" edge="1" parent="1">
          <mxGeometry relative="1" as="geometry">
            <mxPoint x="205" y="600" as="targetPoint" />
            <mxPoint x="494" y="600" as="sourcePoint" />
          </mxGeometry>
        </mxCell>
        <mxCell id="oXpmxhtpxY_ralDpMQTe-36" style="edgeStyle=orthogonalEdgeStyle;rounded=0;orthogonalLoop=1;jettySize=auto;html=1;endArrow=none;endFill=0;strokeWidth=3;entryX=1;entryY=0.5;entryDx=0;entryDy=0;" edge="1" parent="1" target="oXpmxhtpxY_ralDpMQTe-42">
          <mxGeometry relative="1" as="geometry">
            <mxPoint x="325.5" y="630" as="targetPoint" />
            <mxPoint x="484.5" y="630" as="sourcePoint" />
          </mxGeometry>
        </mxCell>
        <mxCell id="oXpmxhtpxY_ralDpMQTe-37" style="edgeStyle=orthogonalEdgeStyle;rounded=0;orthogonalLoop=1;jettySize=auto;html=1;endArrow=none;endFill=0;strokeWidth=3;" edge="1" parent="1" source="oXpmxhtpxY_ralDpMQTe-38">
          <mxGeometry relative="1" as="geometry">
            <mxPoint x="205" y="571" as="targetPoint" />
          </mxGeometry>
        </mxCell>
        <mxCell id="oXpmxhtpxY_ralDpMQTe-38" value="" style="triangle;whiteSpace=wrap;html=1;strokeWidth=3;" vertex="1" parent="1">
          <mxGeometry x="275" y="556" width="20" height="30" as="geometry" />
        </mxCell>
        <mxCell id="oXpmxhtpxY_ralDpMQTe-39" value="" style="ellipse;whiteSpace=wrap;html=1;aspect=fixed;strokeWidth=3;" vertex="1" parent="1">
          <mxGeometry x="295" y="566" width="9" height="9" as="geometry" />
        </mxCell>
        <mxCell id="oXpmxhtpxY_ralDpMQTe-40" style="edgeStyle=orthogonalEdgeStyle;rounded=0;orthogonalLoop=1;jettySize=auto;html=1;endArrow=none;endFill=0;strokeWidth=3;" edge="1" parent="1" source="oXpmxhtpxY_ralDpMQTe-41">
          <mxGeometry relative="1" as="geometry">
            <mxPoint x="205" y="631" as="targetPoint" />
          </mxGeometry>
        </mxCell>
        <mxCell id="oXpmxhtpxY_ralDpMQTe-41" value="" style="triangle;whiteSpace=wrap;html=1;strokeWidth=3;" vertex="1" parent="1">
          <mxGeometry x="275" y="616" width="20" height="30" as="geometry" />
        </mxCell>
        <mxCell id="oXpmxhtpxY_ralDpMQTe-42" value="" style="ellipse;whiteSpace=wrap;html=1;aspect=fixed;strokeWidth=3;" vertex="1" parent="1">
          <mxGeometry x="295" y="626" width="9" height="9" as="geometry" />
        </mxCell>
        <mxCell id="oXpmxhtpxY_ralDpMQTe-43" value="CS_n Sample [0]" style="text;html=1;align=center;verticalAlign=middle;whiteSpace=wrap;rounded=0;fontSize=14;fontStyle=1" vertex="1" parent="1">
          <mxGeometry x="85" y="530" width="120" height="20" as="geometry" />
        </mxCell>
        <mxCell id="oXpmxhtpxY_ralDpMQTe-44" value="CS_n Sample [1]" style="text;html=1;align=center;verticalAlign=middle;whiteSpace=wrap;rounded=0;fontSize=14;fontStyle=1" vertex="1" parent="1">
          <mxGeometry x="85" y="560.5" width="120" height="20" as="geometry" />
        </mxCell>
        <mxCell id="oXpmxhtpxY_ralDpMQTe-45" value="CS_n Sample [2]" style="text;html=1;align=center;verticalAlign=middle;whiteSpace=wrap;rounded=0;fontSize=14;fontStyle=1" vertex="1" parent="1">
          <mxGeometry x="85" y="590" width="120" height="20" as="geometry" />
        </mxCell>
        <mxCell id="oXpmxhtpxY_ralDpMQTe-46" value="CS_n Sample [3]" style="text;html=1;align=center;verticalAlign=middle;whiteSpace=wrap;rounded=0;fontSize=14;fontStyle=1" vertex="1" parent="1">
          <mxGeometry x="85" y="621" width="120" height="20" as="geometry" />
        </mxCell>
        <mxCell id="oXpmxhtpxY_ralDpMQTe-48" value="" style="verticalLabelPosition=bottom;shadow=0;dashed=0;align=center;html=1;verticalAlign=top;shape=mxgraph.electrical.logic_gates.logic_gate;operation=or;numInputs=4;strokeWidth=3;" vertex="1" parent="1">
          <mxGeometry x="475" y="525" width="150" height="120" as="geometry" />
        </mxCell>
        <mxCell id="oXpmxhtpxY_ralDpMQTe-49" value="CSTM Output" style="text;html=1;align=center;verticalAlign=middle;whiteSpace=wrap;rounded=0;fontSize=14;fontStyle=1" vertex="1" parent="1">
          <mxGeometry x="625" y="575" width="100" height="20" as="geometry" />
        </mxCell>
        <mxCell id="oXpmxhtpxY_ralDpMQTe-50" value="A" style="text;html=1;align=center;verticalAlign=middle;whiteSpace=wrap;rounded=0;fontSize=14;fontStyle=1" vertex="1" parent="1">
          <mxGeometry x="300" y="160" width="40" height="20" as="geometry" />
        </mxCell>
        <mxCell id="oXpmxhtpxY_ralDpMQTe-51" value="B" style="text;html=1;align=center;verticalAlign=middle;whiteSpace=wrap;rounded=0;fontSize=14;fontStyle=1" vertex="1" parent="1">
          <mxGeometry x="300" y="200" width="40" height="20" as="geometry" />
        </mxCell>
        <mxCell id="oXpmxhtpxY_ralDpMQTe-52" value="C" style="text;html=1;align=center;verticalAlign=middle;whiteSpace=wrap;rounded=0;fontSize=14;fontStyle=1" vertex="1" parent="1">
          <mxGeometry x="300" y="320" width="40" height="20" as="geometry" />
        </mxCell>
        <mxCell id="oXpmxhtpxY_ralDpMQTe-53" value="D" style="text;html=1;align=center;verticalAlign=middle;whiteSpace=wrap;rounded=0;fontSize=14;fontStyle=1" vertex="1" parent="1">
          <mxGeometry x="300" y="360" width="40" height="20" as="geometry" />
        </mxCell>
        <mxCell id="oXpmxhtpxY_ralDpMQTe-54" value="A" style="text;html=1;align=center;verticalAlign=middle;whiteSpace=wrap;rounded=0;fontSize=14;fontStyle=1" vertex="1" parent="1">
          <mxGeometry x="450" y="520" width="40" height="20" as="geometry" />
        </mxCell>
        <mxCell id="oXpmxhtpxY_ralDpMQTe-55" value="B" style="text;html=1;align=center;verticalAlign=middle;whiteSpace=wrap;rounded=0;fontSize=14;fontStyle=1" vertex="1" parent="1">
          <mxGeometry x="450" y="550" width="40" height="20" as="geometry" />
        </mxCell>
        <mxCell id="oXpmxhtpxY_ralDpMQTe-56" value="C" style="text;html=1;align=center;verticalAlign=middle;whiteSpace=wrap;rounded=0;fontSize=14;fontStyle=1" vertex="1" parent="1">
          <mxGeometry x="450" y="580.5" width="40" height="20" as="geometry" />
        </mxCell>
        <mxCell id="oXpmxhtpxY_ralDpMQTe-57" value="D" style="text;html=1;align=center;verticalAlign=middle;whiteSpace=wrap;rounded=0;fontSize=14;fontStyle=1" vertex="1" parent="1">
          <mxGeometry x="450" y="610" width="40" height="20" as="geometry" />
        </mxCell>
        <mxCell id="oXpmxhtpxY_ralDpMQTe-58" value="" style="shape=singleArrow;direction=south;whiteSpace=wrap;html=1;" vertex="1" parent="1">
          <mxGeometry x="395" y="430" width="30" height="70" as="geometry" />
        </mxCell>
      </root>
    </mxGraphModel>
  </diagram>
</mxfile>
